# xmcd CD database file
#
# Track frame offsets:
#	150
#	18740
#	39190
#	56345
#	76150
#	92180
#	112110
#	135360
#	154752
#	176322
#	198307
#	215792
#	233997
#	255237
#	275572
#	294717
#	315605
#
# Disc length: 4421 seconds
#
# Revision: 0
# Processed by: cddbd v1.5PL3 Copyright (c) Steve Scherf et al.
# Submitted via: CDex 1.50
#
DISCID=e9114311
DTITLE=FIELD OF VIEW - complete of FIELD OF VIEW
DYEAR=2003
DGENRE=JPop
TTITLE0=君がいたから
TTITLE1=突然
TTITLE2=Last Good-bye
TTITLE3=Dreams
TTITLE4=DAN DAN 心魅かれてく
TTITLE5=青い傘で
TTITLE6=大空へ
TTITLE7=渇いた叫び
TTITLE8=冬のバラード
TTITLE9=この街で君と暮らしたい
TTITLE10=CRASH
TTITLE11=Holiday
TTITLE12=あの時の中で僕らは
TTITLE13=迷わないで
TTITLE14=君を見ていた僕と僕を見ていた君と
TTITLE15=Real prayer
TTITLE16=君がいたから（Acoustic Version）
EXTD=YEAR: 2003
EXTT0=
EXTT1=
EXTT2=
EXTT3=
EXTT4=
EXTT5=
EXTT6=
EXTT7=
EXTT8=
EXTT9=
EXTT10=
EXTT11=
EXTT12=
EXTT13=
EXTT14=
EXTT15=
EXTT16=
PLAYORDER=
